<?xml version="1.0" encoding="UTF-8"?>
<svg id="katman_1" xmlns="http://www.w3.org/2000/svg" version="1.1" viewBox="0 0 595.5 841.92">
  <!-- Generator: Adobe Illustrator 29.3.1, SVG Export Plug-In . SVG Version: 2.1.0 Build 151)  -->
  <defs>
    <style>
      .st0 {
        fill: #2576bf;
      }

      .st1 {
        fill: #36342f;
      }

      .st1, .st2, .st3 {
        display: none;
      }

      .st2 {
        fill: #11100b;
      }
    </style>
  </defs>
  <path class="st2" d="M27.75,561.75V27.75h540v534H27.75ZM205.75,195.75c7.73,4.7,158.08,0,181,0,4.5,0,3.16-18.81,2.51-22.51-12.8-72.92-161.79-77.18-182.4-3.38-1.39,4.98-5.66,23.12-1.11,25.89ZM219.22,208.34c-7.38-2.59-19.66-.2-13.7,8.02,1.08,1.49,25.14,13.21,29.15,13.5,17.62,1.26,22.8-11.56,32.22-12.08,10.44-.58,17.02,17,39.43,11.53,7.82-1.91,7.76-9.17,18.38-9.77,13.61-.76,16.75,11.41,33.98,10.26,7.25-.48,42.29-15.58,27.71-21.74-10.47-4.42-16.15,6.89-22.53,8.79-17.55,5.23-25.51-11.29-43.14-9.23-9.8,1.15-14.65,12.45-23.81,12.08-11.07-.45-15.27-14.76-34.25-12.02-9.06,1.31-15.79,11.86-25.61,11.46-9.29-.38-15.7-10.05-17.84-10.8ZM253.43,240.24c-7.98.12-47.66.89-49.39,4.79-8.79,19.74,12.04,47.37,32.9,50.53,19.47,2.95,102.04,2.86,121.31-.31,17.84-2.93,31.42-16.63,33.25-34.73.6-5.9,2.68-17.9-4.76-18.77-44.31,2.1-89.15-2.17-133.32-1.51ZM391.75,417.75c2-1.96-1.51-48.79,0-56-10.96.22-38.78-4.87-29.71,14.72,3.58,7.72,15.69-4.64,11.57,16.15-2.95,14.88-19.45,14.27-21.88-1.85-1.78-11.84-5.29-63.37,12.26-61.91,13.17,1.09,8.59,17.71,9.76,18.9.63.64,17.38.64,18.02,0,1.76-1.77-1.02-16.78-2.42-20.6-7.46-20.35-41.8-20.54-50.78-4.67-7.39,13.05-8.19,76.27,1.49,87.96,17.24,20.82,31.85,1.76,38.71,1.31.79-.05,7.14,11.7,12.99,5.99ZM443.22,312.34c-17.25-4.39-35.38,2.57-39,20.88-1.85,9.36-1.53,71.86,2.19,77.89,8.31,13.47,44.3,11.73,53.11-2.59,6.25-10.16,5.98-67.29,1.69-79.21-2.02-5.62-13.78-15.9-17.98-16.96ZM162.75,313.75c-10.44-1.95-25.91,1.43-37,0v106h33c20.06,0,28.2-21.25,24.42-38.42-1.4-6.36-11.18-14.16-10.81-16.59.29-1.92,8.17-10.21,9.23-16.14,2.72-15.16-2.03-31.72-18.84-34.85ZM211.75,313.75c-2.3.65-18-.9-18,0v81c0,34.72,60,31.9,60,2v-83c0-.9-18-.9-18,0v83c0,9.87-24,9.15-24-2v-81ZM302.75,313.75c-10.75-1.81-25.7,1.33-37,0v103c0,4.16,14.92,3.01,18,3v-39c0-1.27,3.31-3.06,5-3.02,6.99.13,4,9.32,6.03,14.01,2.54,5.86,5.66,9.6,7.77,14.31,2.57,5.72-6.15,11.95,10.71,13.18,25.82,1.89-5.22-34.39-3.61-44.29.13-.78,8.05-4.75,11.12-11.17,8.29-17.3,3.56-46.38-18.02-50.02ZM405.75,427.75c-4.63-2.64-14-.99-14,5v33c-7.86-.02-24.69-10.57-19.62,6.55s33.62,7.87,33.62.45v-45ZM415.75,441.75c-1.37,1.32,0,32.74,0,38,0,.6,11.58.43,12.01.01,1.07-1.04-1.6-17.01.98-22.02,3.21-6.23,11.95-2.45,13.08-5.13,8-18.97-11.87-6.82-13.1-6.87-.76-.03-7.36-9.38-12.98-3.99ZM451.47,466.04c-12.48-7.83-21.12,18.49-4.66,17.62,8.86-.47,7.98-15.54,4.66-17.62Z"/>
  <rect class="st1" x="27.75" y="561.75" width="540" height="6"/>
  <g>
    <g class="st3">
      <path class="st0" d="M96.4,427.63c25.39,4.74,32.57,29.75,28.46,52.66-1.61,8.97-13.52,21.49-13.95,24.39-.55,3.67,14.22,15.45,16.34,25.06,5.71,25.94-6.58,58.04-36.89,58.04h-49.86v-160.14c16.76,2.15,40.13-2.94,55.9,0ZM67.69,451.81c-1.48,1.51,1.09,35.89,0,42.3,19.22,4.01,33.9-13.65,30.54-31.74-1.6-8.61-28.55-12.58-30.54-10.56ZM97.18,556.83c16.41-16.4-6.28-55.41-26.67-40.25-3.66,2.72-4.4,42.46-2.84,44.02,1.46,1.46,25.56.18,29.5-3.76Z"/>
      <path class="st0" d="M307.91,427.63c32.61,5.49,39.75,49.43,27.23,75.57-4.64,9.69-16.61,15.69-16.8,16.87-2.44,14.96,44.47,69.76,5.45,66.91-25.47-1.86-12.29-11.26-16.18-19.91-3.2-7.11-7.91-12.76-11.74-21.62-3.07-7.1,1.44-20.98-9.11-21.17-2.55-.05-7.55,2.65-7.55,4.57v58.92c-4.65.02-27.19,1.76-27.19-4.53v-155.61c17.07,2,39.65-2.74,55.9,0ZM308.56,458.7c-3.96-5.11-26.18-10.64-31.06-4.05-2.7,3.64-2.75,41.01,1.5,44.19,19.11,14.29,45.64-19.39,29.56-40.14Z"/>
      <path class="st0" d="M520.13,425.5c6.34,1.61,24.11,17.13,27.17,25.63,6.48,18.02,6.9,104.32-2.55,119.68-13.31,21.64-67.68,24.26-80.24,3.92-5.62-9.1-6.1-103.54-3.3-117.67,5.47-27.67,32.87-38.18,58.92-31.55ZM504.84,449.6c-23.84.35-20.94,83.65-17.04,100.3,3.2,13.7,21.82,18.87,30.19,9.24,3.6-4.14,5-87.46,2.86-96.68-1.72-7.36-8.62-12.98-16-12.87Z"/>
      <path class="st0" d="M442.37,584.76c-8.83,8.63-18.42-9.13-19.62-9.05-10.36.69-32.44,29.47-58.49-1.98-14.63-17.67-13.42-113.17-2.25-132.89,13.57-23.97,65.45-23.69,76.72,7.06,2.11,5.77,6.32,28.44,3.65,31.12-.96.97-26.27.97-27.22,0-1.76-1.8,5.15-26.91-14.74-28.56-26.51-2.19-21.21,75.65-18.52,93.54,3.67,24.34,28.61,25.27,33.06,2.79,6.22-31.41-12.08-12.74-17.48-24.4-13.7-29.58,28.33-21.9,44.89-22.23-2.29,10.9,3.03,81.65,0,84.6Z"/>
      <path class="st0" d="M170.42,427.63v122.37c0,16.84,36.26,17.94,36.26,3.02v-125.4c0-1.36,27.19-1.36,27.19,0v125.4c0,45.18-90.65,49.44-90.65-3.02v-122.37c0-1.36,23.72.98,27.19,0Z"/>
      <path class="st0" d="M463.52,599.86v67.99c0,11.2-43.36,24.37-50.79-.68-7.67-25.85,17.76-9.92,29.63-9.89v-49.86c0-9.04,14.16-11.54,21.15-7.55Z"/>
      <path class="st0" d="M478.63,621.02c8.48-8.13,18.45,5.99,19.61,6.04,1.85.07,31.87-18.29,19.79,10.37-1.71,4.06-14.92-1.65-19.77,7.76-3.89,7.56.14,31.69-1.48,33.26-.65.63-18.15.89-18.15-.02,0-7.94-2.07-55.42,0-57.41Z"/>
      <path class="st0" d="M532.59,657.71c5.02,3.15,6.35,25.91-7.04,26.62-24.87,1.32-11.82-38.44,7.04-26.62Z"/>
    </g>
    <path class="st2" d="M97.18,556.83c-3.94,3.94-28.04,5.22-29.5,3.76-1.56-1.56-.82-41.29,2.84-44.02,20.39-15.16,43.08,23.85,26.67,40.25Z"/>
    <path class="st2" d="M67.69,451.81c1.98-2.02,28.93,1.95,30.54,10.56,3.36,18.09-11.31,35.75-30.54,31.74,1.09-6.42-1.48-40.79,0-42.3Z"/>
    <path class="st2" d="M308.56,458.7c16.08,20.74-10.45,54.42-29.56,40.14-4.25-3.18-4.2-40.54-1.5-44.19,4.88-6.59,27.1-1.06,31.06,4.05Z"/>
    <path class="st2" d="M504.84,449.6c7.38-.11,14.29,5.5,16,12.87,2.15,9.22.75,92.54-2.86,96.68-8.37,9.62-26.99,4.46-30.19-9.24-3.89-16.66-6.8-99.95,17.04-100.3Z"/>
    <g>
      <path class="st0" d="M161.36,249.36c-6.88-4.18-.43-31.58,1.68-39.11,31.14-111.49,256.22-105.06,275.56,5.11.98,5.59,3.02,34-3.79,34-34.62,0-261.77,7.1-273.45,0ZM421.22,231.23c-11.17-112.66-234.26-113.78-241.73,0h241.73Z"/>
      <path class="st0" d="M233.4,316.58c66.72-.99,134.46,5.45,201.41,2.28,11.23,1.3,8.09,19.43,7.19,28.35-2.76,27.35-23.29,48.04-50.24,52.47-29.12,4.79-153.86,4.92-183.28.47-31.52-4.77-62.98-46.51-49.7-76.33,2.62-5.89,62.56-7.06,74.62-7.24ZM424.24,336.99h-243.24c-11.31,0-2.81,40.63,36.1,45.48,28.51,3.55,144.98,3.98,171.64-.9,21.79-3.98,36-22.75,35.49-44.58Z"/>
      <path class="st0" d="M181.71,268.38c3.22,1.13,12.92,15.74,26.95,16.31,14.84.6,25.01-15.34,38.69-17.31,28.68-4.14,35.02,17.48,51.74,18.16,13.84.56,21.17-16.52,35.98-18.25,26.64-3.12,38.66,21.84,65.17,13.94,9.64-2.87,18.22-19.96,34.04-13.28,22.03,9.31-30.92,32.12-41.87,32.85-26.03,1.74-30.78-16.66-51.34-15.5-16.05.9-15.96,11.88-27.77,14.76-33.86,8.26-43.81-18.31-59.57-17.42-14.23.8-22.06,20.16-48.68,18.26-6.05-.43-42.41-18.14-44.04-20.39-9.01-12.43,9.54-16.03,20.7-12.12Z"/>
      <path class="st2" d="M421.22,231.23h-241.73c7.47-113.78,230.56-112.66,241.73,0Z"/>
      <path class="st2" d="M424.24,336.99c.51,21.83-13.7,40.6-35.49,44.58-26.67,4.87-143.13,4.45-171.64.9-38.91-4.85-47.42-45.48-36.1-45.48h243.24Z"/>
    </g>
  </g>
  <g>
    <path class="st0" d="M125.48,509.19c3.53,6.37,5.3,13.65,5.3,21.83,0,11.81-2.94,21.17-8.81,28.07-5.87,6.91-14.06,10.36-24.56,10.36h-46.83v-141.27h45.26c10.22,0,18.21,3.29,23.99,9.86,5.78,6.57,8.67,15.5,8.67,26.76,0,8.32-1.55,15.23-4.65,20.73-3.1,5.5-7.23,9.33-12.39,11.47,5.82,1.75,10.5,5.8,14.04,12.17ZM75.06,485.34h16.04c4.01,0,7.09-1.24,9.24-3.72,2.15-2.48,3.22-6.14,3.22-10.97s-1.07-8.52-3.22-11.07c-2.15-2.55-5.23-3.82-9.24-3.82h-16.04v29.58ZM102.63,537.76c2.24-2.62,3.37-6.4,3.37-11.37s-1.17-8.85-3.51-11.67c-2.34-2.82-5.56-4.23-9.67-4.23h-17.76v31.19h18.05c4.1,0,7.28-1.31,9.52-3.92Z"/>
    <path class="st0" d="M169.02,428.19v84.52c0,8.45,1.48,14.96,4.44,19.52,2.96,4.56,7.3,6.84,13.03,6.84s10.12-2.28,13.18-6.84c3.05-4.56,4.58-11.07,4.58-19.52v-84.52h24.49v84.32c0,12.61-1.91,23.28-5.73,32-3.82,8.72-8.95,15.29-15.4,19.72-6.44,4.43-13.63,6.64-21.56,6.64s-15.02-2.18-21.27-6.54c-6.25-4.36-11.2-10.93-14.82-19.72-3.63-8.79-5.44-19.49-5.44-32.1v-84.32h24.49Z"/>
    <path class="st0" d="M297.2,569.46l-20.91-53.33h-5.87v53.33h-24.49v-141.27h41.11c7.92,0,14.68,1.95,20.27,5.84,5.59,3.89,9.76,9.23,12.53,16,2.77,6.78,4.15,14.32,4.15,22.64,0,9.39-1.89,17.78-5.66,25.16-3.77,7.38-9.33,12.61-16.69,15.7l23.2,55.94h-27.64ZM270.42,491.78h15.18c4.49,0,7.85-1.54,10.1-4.63,2.24-3.08,3.37-7.45,3.37-13.08s-1.12-9.59-3.37-12.68c-2.25-3.08-5.61-4.63-10.1-4.63h-15.18v35.02Z"/>
    <path class="st0" d="M406.05,472.86c-1.82-4.69-4.42-8.28-7.81-10.77-3.39-2.48-7.38-3.72-11.96-3.72-7.93,0-14.28,3.66-19.05,10.97-4.78,7.31-7.16,17.07-7.16,29.28,0,13.01,2.51,23.18,7.52,30.49,5.01,7.31,11.91,10.97,20.7,10.97,6.02,0,11.1-2.14,15.25-6.44,4.15-4.29,7.18-10.46,9.09-18.51h-31.08v-25.36h53.28v32c-1.82,8.59-4.89,16.57-9.24,23.95-4.35,7.38-9.86,13.35-16.54,17.91-6.68,4.56-14.23,6.84-22.63,6.84-9.93,0-18.79-3.05-26.57-9.16-7.78-6.1-13.85-14.59-18.19-25.46-4.35-10.87-6.52-23.27-6.52-37.23s2.17-26.39,6.52-37.33c4.34-10.93,10.38-19.45,18.12-25.56,7.73-6.1,16.57-9.16,26.5-9.16,12.03,0,22.17,4.09,30.43,12.28,8.26,8.18,13.72,19.52,16.4,34.01h-27.07Z"/>
    <path class="st0" d="M470,561.61c-7.88-6.17-14.13-14.79-18.76-25.86-4.63-11.07-6.95-23.51-6.95-37.33s2.31-26.23,6.95-37.23c4.63-11,10.88-19.59,18.76-25.76,7.88-6.17,16.54-9.26,26-9.26s18.12,3.09,26,9.26c7.88,6.17,14.08,14.76,18.62,25.76,4.53,11,6.8,23.41,6.8,37.23s-2.29,26.26-6.88,37.33c-4.58,11.07-10.79,19.69-18.62,25.86-7.83,6.17-16.47,9.26-25.92,9.26s-18.12-3.08-26-9.26ZM515.26,528.2c4.82-7.51,7.23-17.44,7.23-29.78s-2.41-22.44-7.23-29.88c-4.82-7.45-11.24-11.17-19.26-11.17s-14.59,3.69-19.41,11.07c-4.82,7.38-7.23,17.38-7.23,29.98s2.41,22.44,7.23,29.88c4.82,7.45,11.29,11.17,19.41,11.17s14.44-3.75,19.26-11.27Z"/>
  </g>
  <g>
    <path class="st0" d="M472.36,586.05v50.23c0,7.78-1.94,13.76-5.83,17.97-3.89,4.2-9.13,6.3-15.72,6.3s-12.44-2.21-16.61-6.62c-4.17-4.41-6.25-10.68-6.25-18.81h15.86c0,3.08.56,5.41,1.68,6.99,1.12,1.58,2.74,2.36,4.85,2.36,1.93,0,3.42-.7,4.48-2.1,1.06-1.4,1.59-3.43,1.59-6.09v-50.23h15.95Z"/>
    <path class="st0" d="M510.33,603.33c2.8-1.86,5.91-2.78,9.33-2.78v19.02h-4.38c-3.98,0-6.97.96-8.96,2.89-1.99,1.93-2.99,5.31-2.99,10.14v27.21h-15.95v-58.63h15.95v9.77c1.87-3.22,4.2-5.76,7-7.62Z"/>
    <path class="st0" d="M530.06,657.87c-1.77-1.85-2.66-4.15-2.66-6.88s.89-5.15,2.66-7.04,4.06-2.84,6.86-2.84,4.99.95,6.76,2.84,2.66,4.24,2.66,7.04-.89,5.03-2.66,6.88c-1.77,1.86-4.03,2.79-6.76,2.79s-5.08-.93-6.86-2.79Z"/>
  </g>
</svg>